HIERARCHY
ROOT Hips
{
	OFFSET 0.000000 0.000000 0.000000
	CHANNELS 6 Xposition Yposition Zposition Zrotation Yrotation Xrotation 
	JOINT LowerBack
	{
		OFFSET 0.000000 0.000000 0.000000
		CHANNELS 3 Zrotation Yrotation Xrotation
		JOINT Spine
		{
			OFFSET 0.028270 2.035590 -0.193380
			CHANNELS 3 Zrotation Yrotation Xrotation
			JOINT Spine1
			{
				OFFSET 0.056720 2.048850 -0.042750
				CHANNELS 3 Zrotation Yrotation Xrotation
				JOINT Neck
				{
					OFFSET 0.000000 0.000000 0.000000
					CHANNELS 3 Zrotation Yrotation Xrotation
					JOINT Neck1
					{
						OFFSET -0.054170 1.746240 0.172020
						CHANNELS 3 Zrotation Yrotation Xrotation
						JOINT Head
						{
							OFFSET 0.104070 1.761360 -0.123970
							CHANNELS 3 Zrotation Yrotation Xrotation
							End Site
							{
								OFFSET 0.000000 0.000000 0.000000
							}
						}
					}
				}
				JOINT LeftShoulder
				{
					OFFSET 0.000000 0.000000 0.000000
					CHANNELS 3 Zrotation Yrotation Xrotation
					JOINT LeftArm
					{
						OFFSET 3.362410 1.200890 -0.311210
						CHANNELS 3 Zrotation Yrotation Xrotation
						JOINT LeftForeArm
						{
							OFFSET 4.983000 -0.000000 -0.000000
							CHANNELS 3 Zrotation Yrotation Xrotation
							JOINT LeftHand
							{
								OFFSET 3.483560 -0.000000 -0.000000
								CHANNELS 3 Zrotation Yrotation Xrotation
								JOINT LeftFingerBase
								{
									OFFSET 0.000000 0.000000 0.000000
									CHANNELS 3 Zrotation Yrotation Xrotation
									JOINT LeftHandIndex1
									{
										OFFSET 0.715260 -0.000000 -0.000000
										CHANNELS 3 Zrotation Yrotation Xrotation
										End Site
										{
											OFFSET 0.000000 0.000000 0.000000
										}
									}
								}
								JOINT LThumb
								{
									OFFSET 0.000000 0.000000 0.000000
									CHANNELS 3 Zrotation Yrotation Xrotation
									End Site
									{
										OFFSET 0.000000 0.000000 0.000000
									}
								}
							}
						}
					}
				}
				JOINT RightShoulder
				{
					OFFSET 0.000000 0.000000 0.000000
					CHANNELS 3 Zrotation Yrotation Xrotation
					JOINT RightArm
					{
						OFFSET -3.136600 1.374050 -0.404650
						CHANNELS 3 Zrotation Yrotation Xrotation
						JOINT RightForeArm
						{
							OFFSET -5.241900 -0.000000 -0.000000
							CHANNELS 3 Zrotation Yrotation Xrotation
							JOINT RightHand
							{
								OFFSET -3.444170 -0.000000 -0.000000
								CHANNELS 3 Zrotation Yrotation Xrotation
								JOINT RightFingerBase
								{
									OFFSET 0.000000 0.000000 0.000000
									CHANNELS 3 Zrotation Yrotation Xrotation
									JOINT RightHandIndex1
									{
										OFFSET -0.622530 -0.000000 -0.000000
										CHANNELS 3 Zrotation Yrotation Xrotation
										End Site
										{
											OFFSET 0.000000 0.000000 0.000000
										}
									}
								}
								JOINT RThumb
								{
									OFFSET 0.000000 0.000000 0.000000
									CHANNELS 3 Zrotation Yrotation Xrotation
									End Site
									{
										OFFSET 0.000000 0.000000 0.000000
									}
								}
							}
						}
					}
				}
			}
		}
	}
}
}
MOTION
Frames: 15
Frame Time: 0.008333
-0.181357 16.862378 0.736652 45.252657 85.603954 69.221053 5.429335 -1.473795 5.602082 0.136677 -1.563878 -1.676633 -6.971210 -1.636651 0.799814 9.491566 4.353296 4.605252 -4.651467 -0.395062 2.889663 0.000000 0.000000 0.000000 -4.884068 -5.716083 1.880624 -58.409202 -30.824816 7.536811 -3.035217 -35.031814 -0.022744 8.286824 -3.180397 -0.251363 -0.163004 0.233824 0.000000 0.000000 0.000000 0.000000 0.000000 0.000000 0.000000 19.633550 0.734349 0.238394 65.938229 11.978490 -11.664402 2.898658 19.106207 0.007467 0.240283 7.386041 0.012652 0.051379 -0.086948 -0.000000 0.000000 0.000000 0.000000 0.000000 0.000000 0.000000 
-0.076708 16.881105 0.803662 47.948115 85.580434 71.900370 5.255775 -1.514224 5.811641 0.117307 -1.589015 -1.653499 -6.901463 -1.666188 0.726730 9.867292 4.629752 4.687394 -4.565567 -0.391457 2.912762 0.000000 0.000000 0.000000 -4.650495 -5.948315 1.887132 -58.994543 -30.185914 7.642640 -3.054649 -34.073834 -0.021719 8.109035 -3.037081 -0.235099 -0.160252 0.227182 0.000000 0.000000 0.000000 0.000000 0.000000 0.000000 0.000000 19.639462 1.034166 0.248443 66.382905 12.522707 -11.935652 2.868338 18.608423 0.007131 0.253879 7.313743 0.013548 0.049148 -0.086946 -0.000000 0.000000 0.000000 0.000000 0.000000 0.000000 0.000000 
0.027142 16.899554 0.872392 50.958957 85.508809 74.879391 5.028522 -1.553349 6.010603 0.087539 -1.612294 -1.627061 -6.828501 -1.692504 0.669749 10.240265 4.851401 4.769239 -4.476822 -0.387785 2.934755 0.000000 0.000000 0.000000 -4.467980 -6.182138 1.899337 -59.468493 -29.560643 7.876472 -3.086090 -33.147856 -0.020269 7.801430 -2.834477 -0.211628 -0.157436 0.219711 0.000000 0.000000 0.000000 0.000000 0.000000 0.000000 0.000000 19.624443 1.284801 0.245841 66.859275 13.077040 -12.084503 2.834623 18.204710 0.006809 0.258916 7.273362 0.013945 0.046862 -0.087027 -0.000000 0.000000 0.000000 0.000000 0.000000 0.000000 0.000000 
0.130810 16.917583 0.941884 53.849102 85.391675 77.727425 4.768674 -1.584947 6.195790 0.050994 -1.628301 -1.597619 -6.752998 -1.710215 0.630513 10.595826 5.000309 4.845376 -4.388938 -0.384174 2.954109 0.000000 0.000000 0.000000 -4.339277 -6.412448 1.912890 -59.849186 -28.938627 8.216617 -3.128377 -32.263875 -0.018418 7.366644 -2.592722 -0.183453 -0.154412 0.211477 0.000000 0.000000 0.000000 0.000000 0.000000 0.000000 0.000000 19.589569 1.466058 0.231307 67.350619 13.662788 -12.034584 2.799640 17.885294 0.006503 0.226107 7.277422 0.011943 0.044834 -0.087269 -0.000000 0.000000 0.000000 0.000000 0.000000 0.000000 0.000000 
0.235180 16.935228 1.010904 56.280037 85.242281 80.120587 4.507164 -1.603777 6.351700 0.013617 -1.633497 -1.569828 -6.676246 -1.716160 0.605940 10.920590 5.108002 4.921265 -4.301959 -0.380643 2.972608 0.000000 0.000000 0.000000 -4.297549 -6.618464 1.931135 -60.135233 -28.318969 8.648007 -3.181249 -31.442408 -0.016276 6.806611 -2.298082 -0.151173 -0.151140 0.202520 0.000000 0.000000 0.000000 0.000000 0.000000 0.000000 0.000000 19.520253 1.613223 0.204490 67.857239 14.234939 -11.867816 2.765479 17.682715 0.006232 0.202488 7.309330 0.010541 0.042799 -0.087661 -0.000000 0.000000 0.000000 0.000000 0.000000 0.000000 0.000000 
0.340345 16.952577 1.078792 58.064001 85.065503 81.872698 4.250756 -1.608434 6.482415 -0.023804 -1.626354 -1.541611 -6.599544 -1.708709 0.600841 11.205697 5.144281 4.984625 -4.220817 -0.377326 2.986813 0.000000 0.000000 0.000000 -4.328124 -6.784986 1.947914 -60.355728 -27.711291 9.139747 -3.242346 -30.670072 -0.013924 6.147131 -1.989219 -0.119190 -0.147610 0.193092 0.000000 0.000000 0.000000 0.000000 0.000000 0.000000 0.000000 19.431172 1.691003 0.166329 68.357954 14.845453 -11.477284 2.734221 17.562069 0.005992 0.145677 7.381050 0.007042 0.041177 -0.088246 -0.000000 0.000000 0.000000 0.000000 0.000000 0.000000 0.000000 
0.446700 16.969772 1.144638 59.111577 84.878840 82.903637 4.022736 -1.597591 6.578308 -0.056360 -1.606495 -1.518314 -6.523259 -1.688151 0.604906 11.445404 5.158112 5.047433 -4.143946 -0.374235 3.000481 0.000000 0.000000 0.000000 -4.441869 -6.916285 1.966765 -60.518622 -27.085506 9.648870 -3.307349 -29.972116 -0.011546 5.415613 -1.658146 -0.088601 -0.143809 0.183380 0.000000 0.000000 0.000000 0.000000 0.000000 0.000000 0.000000 19.308953 1.751647 0.118991 68.854210 15.432984 -10.964893 2.706074 17.558763 0.005791 0.102928 7.470390 0.004443 0.039619 -0.089008 -0.000000 0.000000 0.000000 0.000000 0.000000 0.000000 0.000000 
0.554084 16.986946 1.208158 59.426476 84.688453 83.217822 3.826444 -1.572616 6.643657 -0.083648 -1.574931 -1.498914 -6.449036 -1.655534 0.619077 11.638301 5.141470 5.102571 -4.074114 -0.371443 3.011752 0.000000 0.000000 0.000000 -4.623670 -6.999930 1.984499 -60.646488 -26.450061 10.141688 -3.372895 -29.336834 -0.009273 4.653912 -1.329069 -0.062112 -0.139871 0.173686 0.000000 0.000000 0.000000 0.000000 0.000000 0.000000 0.000000 19.166617 1.784592 0.063989 69.332979 16.022008 -10.296969 2.682067 17.652272 0.005627 0.063577 7.574862 0.001945 0.038263 -0.089936 -0.000000 0.000000 0.000000 0.000000 0.000000 0.000000 0.000000 
0.662441 17.004253 1.269110 59.049219 84.501515 82.857458 3.668998 -1.535247 6.678048 -0.104032 -1.533389 -1.486252 -6.377273 -1.613039 0.634026 11.786380 5.132918 5.158095 -4.009672 -0.368939 3.023204 0.000000 0.000000 0.000000 -4.864552 -7.043170 2.002823 -60.751749 -25.781233 10.578793 -3.434265 -28.773810 -0.007255 3.908396 -1.006629 -0.040522 -0.135934 0.164270 0.000000 0.000000 0.000000 0.000000 0.000000 0.000000 0.000000 18.999886 1.830902 0.004018 69.794202 16.572540 -9.545508 2.661190 17.857570 0.005500 0.054172 7.681070 0.001447 0.036855 -0.091030 -0.000000 0.000000 0.000000 0.000000 0.000000 0.000000 0.000000 
0.771398 17.021662 1.327696 58.051484 84.315765 81.891193 3.542313 -1.488566 6.691395 -0.119743 -1.484112 -1.475662 -6.310606 -1.562526 0.658851 11.892784 5.084952 5.194281 -3.955912 -0.366809 3.029336 0.000000 0.000000 0.000000 -5.137844 -7.022527 2.014857 -60.858862 -25.114535 10.947292 -3.489143 -28.249943 -0.005547 3.230901 -0.727039 -0.025132 -0.132260 0.155422 0.000000 0.000000 0.000000 0.000000 0.000000 0.000000 0.000000 18.838765 1.836894 -0.060113 70.220688 17.162226 -8.605534 2.645121 18.120897 0.005406 0.034628 7.791358 0.000150 0.035810 -0.092242 -0.000000 0.000000 0.000000 0.000000 0.000000 0.000000 0.000000 
0.880729 17.039236 1.384186 56.526418 84.130749 80.410987 3.445238 -1.434646 6.684000 -0.130795 -1.429009 -1.470378 -6.249151 -1.506355 0.681832 11.965651 5.045773 5.223085 -3.909480 -0.365000 3.033797 0.000000 0.000000 0.000000 -5.434072 -6.953520 2.024013 -60.971527 -24.421076 11.219772 -3.533224 -27.782056 -0.004253 2.665007 -0.480650 -0.014543 -0.128973 0.147286 0.000000 0.000000 0.000000 0.000000 0.000000 0.000000 0.000000 18.677426 1.855363 -0.125458 70.619149 17.735006 -7.586843 2.631928 18.463505 0.005343 0.044628 7.894419 0.000954 0.034711 -0.093581 -0.000000 0.000000 0.000000 0.000000 0.000000 0.000000 0.000000 
0.990123 17.056851 1.439104 54.579537 83.938985 78.517622 3.366567 -1.376203 6.662078 -0.139491 -1.370152 -1.470333 -6.193354 -1.446683 0.698075 12.013774 5.032682 5.246488 -3.868987 -0.363470 3.037251 0.000000 0.000000 0.000000 -5.734872 -6.839431 2.030663 -61.098212 -23.697464 11.388943 -3.564420 -27.363816 -0.003386 2.249168 -0.280319 -0.007954 -0.126222 0.140001 0.000000 0.000000 0.000000 0.000000 0.000000 0.000000 0.000000 18.520364 1.905830 -0.190228 70.991938 18.273794 -6.530015 2.619464 18.890120 0.005298 0.091219 7.980261 0.004358 0.033404 -0.095037 -0.000000 0.000000 0.000000 0.000000 0.000000 0.000000 0.000000 
1.099318 17.074394 1.493019 52.328139 83.732917 76.325584 3.294030 -1.315232 6.630496 -0.148688 -1.308954 -1.473074 -6.144614 -1.384691 0.712415 12.044519 5.013300 5.253595 -3.837274 -0.362273 3.036681 0.000000 0.000000 0.000000 -6.021100 -6.678379 2.031018 -61.247085 -22.955435 11.455782 -3.581123 -26.988063 -0.002919 2.010040 -0.138024 -0.004366 -0.124056 0.133588 0.000000 0.000000 0.000000 0.000000 0.000000 0.000000 0.000000 18.389290 1.951850 -0.253089 71.331611 18.826924 -5.383639 2.608853 19.357532 0.005274 0.152322 8.058989 0.008862 0.032109 -0.096607 -0.000000 0.000000 0.000000 0.000000 0.000000 0.000000 0.000000 
1.208093 17.091716 1.546487 49.891647 83.504530 73.949930 3.216616 -1.253360 6.592275 -0.160429 -1.246594 -1.479566 -6.102401 -1.321697 0.718753 12.066407 5.015093 5.251206 -3.811275 -0.361328 3.034054 0.000000 0.000000 0.000000 -6.283783 -6.477821 2.027710 -61.417087 -22.188560 11.430554 -3.583312 -26.656226 -0.002813 1.958900 -0.057288 -0.002679 -0.122497 0.128020 0.000000 0.000000 0.000000 0.000000 0.000000 0.000000 0.000000 18.279770 2.025170 -0.312992 71.647172 19.357920 -4.220962 2.597458 19.882049 0.005259 0.243476 8.123576 0.015565 0.030565 -0.098317 -0.000000 0.000000 0.000000 0.000000 0.000000 0.000000 0.000000 
1.316290 17.108642 1.600010 47.382650 83.247508 71.500358 3.123776 -1.191600 6.549666 -0.176889 -1.183686 -1.488857 -6.066783 -1.258220 0.718636 12.085465 5.026484 5.236400 -3.791307 -0.360635 3.028537 0.000000 0.000000 0.000000 -6.513658 -6.241917 2.020064 -61.608507 -21.401328 11.326573 -3.571716 -26.367929 -0.002990 2.091021 -0.042714 -0.002492 -0.121475 0.123194 0.000000 0.000000 0.000000 0.000000 0.000000 0.000000 0.000000 18.199618 2.113334 -0.369308 71.939308 19.881213 -3.037713 2.585145 20.444758 0.005251 0.354443 8.180996 0.023869 0.028835 -0.100192 -0.000000 0.000000 0.000000 0.000000 0.000000 0.000000 0.000000 
